<svg width="101" height="51" viewBox="0 0 101 51" fill="none" xmlns="http://www.w3.org/2000/svg">
<path fill-rule="evenodd" clip-rule="evenodd" d="M73.372 0.70453C73.0044 0.63628 72.6205 0.664868 72.281 0.887877C71.5747 1.35192 71.4394 2.10781 71.2834 2.67205C71.0138 3.64663 71.1118 4.62027 71.1899 5.48769C71.3463 7.22507 71.9463 8.80322 72.2122 10.3443C72.3712 11.2658 72.5114 12.1915 72.6364 13.1194C72.1472 14.2733 71.6417 15.42 71.1446 16.5365C69.9996 19.1083 68.6842 21.6203 67.424 24.176C66.0844 26.8925 64.8581 29.6407 63.3999 32.2375C62.3735 34.0655 61.7757 35.2489 60.714 36.5796C60.39 36.9858 59.8352 37.5658 59.6031 37.6742C59.3709 37.7825 59.2125 37.7958 59.1093 37.7599C59.031 37.7327 58.9442 37.6487 58.8372 37.4152C58.7302 37.1817 58.6404 36.851 58.516 36.5205C58.0035 35.1592 57.7973 33.6487 57.7174 32.1389C57.6774 31.3814 57.7493 30.6044 57.824 29.8223C58.4891 28.0379 59.1772 26.2593 59.8882 24.4861C61.1485 21.343 62.5999 18.2556 63.8949 15.0803C64.5805 13.3991 65.4724 11.7103 65.9404 9.82069C66.038 9.42658 66.2143 8.94905 66.3245 8.42868C66.4346 7.9083 66.4806 7.30979 66.2112 6.73398C65.8953 6.0591 65.2386 5.66229 64.5299 5.61335C63.4693 5.5401 62.6368 6.21174 62.0304 6.74496C61.0952 7.56729 60.6101 8.68377 60.1438 9.63966C59.4331 11.0968 58.9619 12.6416 58.5643 14.1669C57.9875 16.379 57.6541 18.6351 57.3785 20.8717C57.1512 22.7166 57.124 24.5485 56.993 26.3388C56.9154 27.4001 56.7732 28.4912 56.6642 29.6004C56.2593 30.6914 55.8522 31.7817 55.481 32.8868C55.3582 33.2523 55.2704 33.6182 55.1553 33.985C54.8882 33.2382 54.5547 32.5518 54.3397 31.9297C54.0983 31.2314 53.8247 30.6065 53.7245 30.0098C53.6257 29.4208 53.6743 27.8511 53.6743 27.8511C53.7015 27.2259 52.8556 27.0046 52.5718 27.5627C52.5718 27.5627 51.1337 30.3889 50.2409 31.8057C50.054 32.1022 49.417 32.9178 49.0971 33.315C49.1943 32.7682 49.7182 31.1296 49.7789 30.706C49.9632 29.421 50.4173 28.1351 50.0574 27.6337C49.8381 27.3282 49.2447 27.0134 48.9305 27.553C48.9305 27.553 47.7026 29.6607 47.1025 30.7435C46.6175 31.6185 46.2837 32.2648 45.6941 33.3726C46.1451 30.8564 46.9161 28.3534 47.3648 25.7329C47.5441 24.6857 48.2113 23.3666 47.7867 21.9509C47.7197 21.7275 47.6183 21.4765 47.4422 21.2366C47.2661 20.9966 46.974 20.7307 46.5531 20.7077C46.4917 20.7043 46.4397 20.7242 46.3807 20.7271C46.5999 19.8746 46.8336 19.0257 47.0075 18.162C47.2196 17.1085 47.7179 15.8625 47.4252 14.5227C47.2495 13.7184 46.8358 12.9704 45.9726 12.4752C45.2008 12.0325 44.3662 12.233 43.7637 12.3683C42.4422 12.6651 41.3483 13.2145 40.3366 13.9076C38.5846 15.1078 36.9614 16.5443 35.6016 18.1897C34.7894 19.1726 34.1193 20.2456 33.5015 21.3432C33.169 20.9106 32.7982 20.5063 32.3308 20.1888C30.8117 19.1567 28.9107 19.2686 27.3593 19.2336C25.5131 19.1919 23.6751 19.5036 21.9274 19.9765C19.0942 20.743 16.4256 21.9873 13.8631 23.3083C10.9008 24.8353 8.4076 26.4814 5.73519 28.4574C3.84123 29.8578 1.21944 32.4441 0.993305 32.7128C0.330779 33.4999 0.790302 34.2889 1.52439 33.6216C1.78432 33.3853 4.3471 30.8384 6.09703 29.5445C8.72544 27.6011 11.4989 25.8364 14.3981 24.3419C16.9323 23.0356 19.5287 21.8308 22.2322 21.0993C23.905 20.6467 25.6362 20.3585 27.3329 20.3968C28.9373 20.4331 30.5844 20.4101 31.6744 21.1507C32.1568 21.4784 32.5468 21.9632 32.8857 22.5093C32.6888 22.8923 32.4679 23.2683 32.2822 23.6524C31.3918 25.4946 30.6821 27.4297 30.1512 29.4013C29.393 32.2173 28.9434 35.1089 28.6664 37.992C28.4776 39.9567 28.24 42.1024 28.5603 44.2809C28.6228 44.706 28.8132 45.28 29.0706 45.8154C29.1992 46.0831 29.3594 46.3451 29.5961 46.5642C29.8327 46.7834 30.1682 46.9516 30.539 46.9655C30.9017 46.9792 31.243 46.831 31.4802 46.6297C31.7175 46.4284 31.8765 46.1862 32.0095 45.9422C32.2756 45.4542 32.4868 44.9413 32.6036 44.6097C33.4487 42.209 34.0976 39.9965 34.5616 37.7167C35.0678 35.2294 35.4679 32.6839 35.5231 30.1122C35.5621 28.2981 35.6598 26.3328 35.0398 24.4658C34.8268 23.8244 34.5388 23.1492 34.2081 22.4992C34.8853 21.236 35.6103 20.0082 36.5014 18.9299C37.7831 17.3789 39.3258 16.011 40.9968 14.8663C41.9885 14.1869 42.9703 13.7389 44.0198 13.5032C44.582 13.377 45.1286 13.3329 45.3917 13.4838C45.7897 13.7121 46.1517 14.1568 46.2858 14.7707C46.4806 15.6627 46.1034 16.747 45.8647 17.9329C45.6274 19.1113 45.3297 20.2799 45.0071 21.4423C44.9157 21.5362 44.7978 21.6112 44.7192 21.7084C44.2989 22.2287 43.9698 22.8112 43.6746 23.1736C42.5236 24.5869 41.669 26.1839 40.8638 27.7425C39.7367 29.9244 38.712 32.1898 37.9629 34.5543C37.5959 35.7127 37.2432 36.6126 37.1357 37.6229C37.0485 38.4415 37.7635 38.6158 38.2646 38.3382C38.7657 38.0605 38.9773 37.6852 39.3684 37.1768C40.2055 36.0886 40.897 34.9074 41.5162 33.7147C42.8037 31.2346 43.8696 28.6453 44.7931 26.0235C45.2595 24.6995 45.6864 23.3571 46.0693 22.0012C46.1993 21.9128 46.3246 21.8711 46.4556 21.8709C46.4493 21.8642 46.4569 21.8678 46.4887 21.8695C46.4775 21.8689 46.4667 21.8708 46.4556 21.8709C46.4607 21.8763 46.4739 21.8869 46.5011 21.9241C46.5618 22.0067 46.6327 22.1604 46.6699 22.2846C46.9243 23.1326 46.4349 24.2549 46.2154 25.5369C45.7655 28.1645 44.9289 30.774 44.4717 33.5128C44.3065 34.5025 44.0602 35.8064 44.0176 36.2722C43.9597 36.9064 45.0374 37.3305 45.3338 36.7666C45.5515 36.3524 47.1412 33.0781 48.1232 31.3063C48.2597 31.0601 48.3643 30.8877 48.5475 30.5662C48.4995 30.9843 48.4368 31.3256 48.3583 31.701C48.1684 32.6104 47.6904 33.8026 47.6781 34.4037C47.661 35.243 48.5718 35.9608 49.2898 35.2195C49.7085 34.7872 50.5017 33.5769 51.2276 32.4249C51.7665 31.5698 52.0659 30.9375 52.5626 29.9966C52.5708 30.0618 52.5646 30.1416 52.5748 30.2023C52.7078 30.9944 53.0193 31.6763 53.238 32.3092C53.6111 33.3887 54.1813 34.2685 54.3059 35.1254C54.373 35.5873 54.3945 36.0577 54.4012 36.5307C54.0011 37.934 53.5822 39.3441 53.1578 40.7239C52.6312 42.4362 51.9018 44.1482 51.4779 46.0005C51.1796 47.3039 50.8063 48.4293 50.9417 49.7552C50.9801 50.1302 51.6269 50.6032 52.0116 50.1285C52.2763 49.802 53.062 48.5351 53.4807 47.5065C54.2199 45.6908 54.6709 43.7767 54.988 41.8773C55.2686 40.1971 55.5879 38.4397 55.5782 36.6607C55.9035 35.5242 56.2139 34.3675 56.587 33.2567C56.6058 33.2006 56.6282 33.1454 56.6471 33.0893C56.7608 34.3809 56.9567 35.686 57.4248 36.9293C57.5171 37.1742 57.6102 37.5345 57.777 37.8985C57.9438 38.2626 58.222 38.683 58.7256 38.8581C59.223 39.0311 59.7105 38.9082 60.0974 38.7277C60.4843 38.5471 61.0597 37.9506 61.4534 37.4792C62.6363 36.0633 63.4738 34.4861 64.417 32.8063C65.9102 30.1471 67.144 27.3791 68.4703 24.6896C69.7221 22.151 71.0376 19.4976 72.171 16.8347C72.4157 16.2599 72.6499 15.6864 72.8785 15.1112C72.9144 15.4371 72.9511 15.7631 72.9835 16.0894C73.0933 17.1946 73.1509 18.2664 73.2371 19.4252C73.2786 19.9831 73.3081 20.5923 73.3673 21.1384C72.1031 22.6052 70.8114 24.0437 69.5832 25.5976C68.7718 26.6239 68.2403 27.346 67.2526 28.7666C66.9916 29.142 66.9555 29.5742 67.0021 29.9516C67.0486 30.329 67.272 30.7661 67.5437 31.0849C67.8948 31.4968 68.3223 31.8276 68.88 32.0091C69.7169 32.2814 70.6743 32.4146 71.5378 32.1264C72.3791 31.8456 72.9517 31.2358 73.4434 30.5697C74.0455 29.754 74.1533 28.8226 74.3315 27.9807C74.5924 26.7486 74.6681 25.5275 74.6552 24.3529C74.6447 23.397 74.6781 22.4366 74.5782 21.5156C74.9917 21.0288 75.4189 20.5603 75.8147 20.0531C75.9291 19.9064 76.1015 19.6515 76.223 19.4931C76.0474 19.9172 75.8383 20.3227 75.7015 20.7668C75.385 21.7943 75.1778 22.8891 75.1919 23.9966C75.1979 24.4679 75.1113 25.1836 75.58 25.8155C75.8922 26.2363 76.1695 26.6594 76.8459 26.5688C77.395 26.4953 77.8709 26.0853 78.1349 25.7719C78.3989 25.4585 78.7177 25.1678 78.8899 24.9946C79.443 24.4384 80.2856 23.4219 80.819 22.7994C80.7928 23.0282 80.651 23.5845 80.6888 23.9778C80.7133 24.2326 80.7408 24.4702 80.917 24.7112C81.0933 24.9522 81.3583 25.1941 81.7395 25.2657C82.2304 25.3579 82.6453 25.136 82.9311 24.9254C83.2168 24.7148 83.4397 24.4852 83.6018 24.3595C84.4712 23.6856 85.17 22.8636 85.8227 22.0691C86.2348 21.5675 86.5534 21.0481 86.8494 20.5919C87.0179 20.8042 87.202 21.0494 87.2456 21.1468C87.4527 21.6096 87.464 22.2554 87.5697 22.9825C87.6399 23.4652 87.6605 23.9301 87.7208 24.4058C87.4776 24.7077 87.2267 25.0103 86.9951 25.3061C86.2796 26.2198 85.6202 27.1888 85.0546 28.2127C84.3262 29.5312 83.5865 30.9177 83.166 32.4453C82.8098 33.7394 82.2611 35.2753 82.6907 36.8216C82.9126 37.6202 83.4189 38.4505 84.2806 38.8343C84.9529 39.1337 85.6742 39.0052 86.2433 38.7116C87.0791 38.2805 87.5255 37.4766 87.859 36.8101C88.3979 35.7336 88.5044 34.5725 88.6592 33.5421C89.0135 31.1849 89.1545 28.7905 89.103 26.4113C89.0908 25.8479 88.9912 25.3153 88.9298 24.7657C89.3838 24.2285 90.0792 23.6402 90.6032 23.2321C91.9227 22.2044 93.2213 21.4766 94.8105 20.9352C95.9492 20.5473 97.0982 20.1859 98.0791 20.3668C98.3411 20.4151 98.6331 20.4928 98.8389 20.5932C99.5918 20.9323 98.7859 21.8485 98.551 22.1181C98.1002 22.6098 97.5938 22.9551 97.0125 23.3995C96.1615 24.0501 95.4035 24.572 94.502 24.9783C93.8232 25.2843 93.4617 25.5022 92.3582 25.6074C91.5333 25.6859 91.4444 26.4043 92.3605 26.4445C93.4747 26.4933 93.7727 26.4384 94.9899 25.9808C96.1319 25.5516 97.0741 24.9308 97.8106 24.3609C98.3869 23.9204 99.0661 23.4646 99.5375 22.8674C99.7944 22.542 99.9876 22.1593 100.11 21.7634C100.235 21.3594 100.429 21.0161 100.262 20.5044C100.104 20.02 99.7164 19.7264 99.3511 19.5481C98.9859 19.3699 98.6076 19.2813 98.2914 19.223C96.9046 18.9673 95.5736 19.4462 94.4337 19.8346C92.724 20.417 91.3147 21.2026 89.8863 22.315C89.5543 22.5736 89.0579 22.9636 88.7706 23.2569C88.7497 23.1128 88.7448 22.959 88.7239 22.8158C88.6356 22.2081 88.6541 21.4414 88.3102 20.6727C88.1455 20.3046 87.8834 19.9904 87.652 19.7182C87.4206 19.4459 87.217 19.2374 87.217 19.2374C86.9544 18.9686 86.5092 19.0148 86.3075 19.3317C86.3075 19.3317 85.3912 20.7597 84.9212 21.3319C84.2788 22.1138 83.6303 22.8642 82.8866 23.4407C82.6255 23.643 82.4135 23.86 82.2383 23.9891C82.0632 24.1182 81.9906 24.1292 81.955 24.1225C81.9674 24.1248 81.9228 24.1123 81.8591 24.0252C81.7954 23.9381 81.7325 23.7953 81.7052 23.6834C81.6323 23.3854 81.8741 22.8699 82.0703 22.1786C82.3644 21.1424 83.2462 18.9627 83.2462 18.9627C83.524 18.28 82.5378 17.8202 82.1912 18.4707C82.1912 18.4707 80.8968 20.8828 80.1616 21.8733C79.5623 22.6805 78.8173 23.4154 78.0621 24.175C77.7588 24.48 77.5206 24.7108 77.3267 24.941C76.9971 25.2871 76.8113 25.3172 76.5171 25.1234C76.3875 24.9487 76.3644 24.5135 76.3577 23.9815C76.3456 23.0296 76.5259 22.0495 76.8159 21.1084C77.32 19.4721 78.0812 17.9004 78.9518 16.3219C79.4393 15.4379 80.1782 14.27 80.9339 13.1189C81.6692 12.7975 82.4289 12.4984 83.19 12.1809C84.5596 11.6094 85.8481 11.1264 87.2597 10.6648C88.743 10.1797 90.2347 9.69476 91.7306 9.23581C92.3433 9.04782 92.2957 8.34271 91.6576 8.34547C91.5858 8.3385 91.5133 8.34486 91.4439 8.3643C91.4439 8.3643 88.5371 9.08223 86.9668 9.5958C85.5267 10.0667 84.1393 10.5238 82.7404 11.1075C82.5309 11.1948 82.3167 11.2813 82.1042 11.3679C83.0724 9.94178 83.8729 8.80595 83.8796 8.79612L83.8873 8.78485V8.7842C84.2964 8.14966 83.3685 7.5171 82.9249 8.12808L82.9241 8.12862C82.9241 8.12862 81.0906 10.4184 80.2009 11.751C80.0853 11.924 79.9678 12.1195 79.8455 12.3305C79.2594 12.6052 78.6802 12.9078 78.121 13.2604C77.5097 13.6458 76.9217 14.1066 76.4222 14.6637C75.8665 15.2835 75.3441 16.2321 75.3441 16.2321C74.9577 16.9133 76.0506 17.4181 76.4246 16.73C76.4246 16.73 76.9679 15.8004 77.2912 15.4398C77.6943 14.9902 78.1889 14.5972 78.7207 14.2596C77.9531 15.5049 76.8249 17.137 74.8943 19.3385C74.7344 19.5209 74.5689 19.7137 74.4156 19.9025C74.4005 19.738 74.3776 19.5685 74.3654 19.4049C74.2822 18.2878 74.1701 17.1029 74.0543 15.9371C73.9569 14.9555 73.831 13.9783 73.6876 13.0034C74.0994 11.9014 74.5023 10.7874 74.9157 9.64127C75.3577 8.41599 75.682 7.41538 75.9583 6.06183C76.1092 5.3225 76.0704 4.57159 76.0523 4.0528C76.0351 3.56082 75.568 3.55172 75.5322 4.04628C75.4829 4.72989 75.4136 5.06657 75.3108 5.57177C75.0616 6.79272 74.6506 7.92599 74.2008 9.17278C73.9533 9.85905 73.6859 10.5505 73.4095 11.2426C73.348 10.8702 73.2861 10.4976 73.2218 10.1251C72.9305 8.4367 72.4886 6.9103 72.3512 5.38382C72.2733 4.51839 72.2131 3.68423 72.4074 2.98166C72.5518 2.45944 72.7239 2.08899 72.961 1.93324C73.1412 1.81486 73.5401 1.74036 73.7404 1.7914C73.9957 1.85649 74.1747 1.97521 74.3714 2.21969C74.6151 2.52269 74.7339 2.67055 74.9126 2.89806C75.2094 3.27582 75.6189 3.09239 75.4617 2.70079C75.3203 2.34852 75.2593 2.11672 75.0204 1.78647C74.6615 1.29021 74.35 1.06969 74.0026 0.910596C73.8069 0.821013 73.5925 0.745478 73.3719 0.704528L73.372 0.70453ZM64.4493 6.77392C64.6915 6.79067 65.0667 7.03942 65.1542 7.22637C65.2689 7.47157 65.2698 7.78326 65.1841 8.18815C65.0984 8.59304 64.9284 9.05579 64.8082 9.54135C64.3853 11.2491 63.529 12.8911 62.8148 14.6422C61.5352 17.78 60.2732 20.5667 58.9961 23.7517C58.7967 24.2491 58.1962 25.8273 57.9983 26.326C58.0889 24.7932 58.3536 22.4924 58.5358 21.0136C58.809 18.796 59.1374 16.5912 59.693 14.4602C60.0823 12.9669 60.5349 11.4963 61.1922 10.149C61.6689 9.17166 62.1202 8.21721 62.8016 7.61805C63.3444 7.14074 63.9818 6.74163 64.4493 6.77392ZM73.5053 22.785C73.5505 23.3045 73.6073 23.8262 73.6129 24.3375C73.6258 25.5111 73.6323 26.6614 73.4067 27.7269C73.2322 28.5512 73.0298 29.3425 72.6198 29.898C72.2456 30.4049 71.6108 30.9439 71.0675 31.1253C70.4871 31.319 69.913 31.2904 69.3136 31.1271C68.9169 31.0189 68.6504 30.9035 68.3846 30.6879C68.1962 30.535 67.9783 30.3484 67.9449 30.1084C67.9114 29.8677 68.1701 29.4877 68.2107 29.4293C69.1922 28.0176 69.6982 27.3304 70.4985 26.3179C71.4478 25.1171 72.4755 23.9569 73.5053 22.785ZM87.8956 26.0491C87.9019 26.1766 87.9342 26.3099 87.9369 26.4369C87.9871 28.7534 87.85 31.0816 87.5062 33.3692C87.3457 34.4371 87.2269 35.4688 86.8157 36.2904C86.5123 36.8965 86.1381 37.4558 85.7077 37.6779C85.4114 37.8308 84.9734 37.8683 84.7561 37.7715C84.3566 37.5936 83.9616 37.0402 83.8144 36.5107C83.5132 35.4265 83.9221 34.0912 84.2904 32.753C84.6656 31.3902 85.3544 30.0808 86.0762 28.7743C86.6019 27.8226 87.2205 26.9138 87.8956 26.0491ZM43.9566 24.8141C43.864 25.0872 43.7888 25.3656 43.693 25.6375C42.7829 28.2212 41.7371 30.7607 40.4811 33.1799C40.0004 34.1059 39.339 35.3173 38.7524 36.1593C38.8422 35.7501 38.9358 35.3135 39.0746 34.9047C39.8465 32.6303 40.7915 30.4209 41.8998 28.2755C42.5257 27.0639 43.2004 25.8997 43.9566 24.8141ZM33.5057 23.8298C33.6456 24.1684 33.8186 24.4866 33.9331 24.8314C34.4627 26.4259 34.3966 28.2555 34.3572 30.0871C34.3041 32.5547 33.9183 35.0326 33.4192 37.485C32.9504 39.7886 32.3605 41.8794 31.558 44.0955C31.3899 44.5597 31.1745 45.04 30.9857 45.3862C30.8914 45.5593 30.7935 45.6852 30.7249 45.7434C30.6563 45.8015 30.6429 45.8046 30.5825 45.8024C30.5064 45.7995 30.4686 45.7847 30.3894 45.7114C30.3102 45.638 30.2112 45.4978 30.122 45.3123C29.9436 44.9411 29.7528 44.4251 29.6831 43.9678C29.4113 42.1864 29.6284 40.172 29.8272 38.103C30.0999 35.2653 30.541 32.437 31.2773 29.7027C31.7902 27.798 32.4754 25.9312 33.3324 24.1581C33.3864 24.0463 33.451 23.9413 33.5057 23.8298Z" fill="black"/>
</svg>