<svg class="object-contain max-h-[56px] mx-auto w-full" width="161" height="32" title="Large" xmlns="http://www.w3.org/2000/svg" viewBox="0 0 161 32" fill="none">
  <path d="M20.8857 15.1356L19.312 22.5729L16.4445 21.2375L9.21906 19.6335L10.528 16.6904L12.0865 9.31363L14.9237 10.6414L22.1757 12.2379L20.8857 15.1356ZM10.509 1.92174L1.89148 0V21.2148L0 30.082H20.9197L29.6205 32V10.6452L31.4515 1.92174H10.509Z" fill="#DE3831"></path>
  <path d="M127.058 9.60492C121.263 9.60492 116.719 14.2239 116.719 20.1177C116.719 26.0116 121.259 30.6268 127.058 30.6268C132.857 30.6268 137.401 26.0078 137.401 20.1177C137.401 14.2277 132.861 9.60492 127.058 9.60492ZM127.058 25.4933C124.069 25.4933 121.902 23.2236 121.902 20.1064C121.902 16.9892 124.069 14.7195 127.058 14.7195C130.047 14.7195 132.218 16.9892 132.218 20.1064C132.218 23.2236 130.047 25.4933 127.058 25.4933Z" fill="white"></path>
  <path d="M95.3343 30.6268C99.2118 30.6268 103.35 28.9585 103.35 24.279C103.35 19.6941 99.6014 18.6878 96.5902 17.8782C94.763 17.3865 93.3179 17.0006 93.3179 15.7863C93.3179 14.9919 93.8892 14.1483 95.4969 14.1483C96.0278 14.1362 96.5534 14.2564 97.0262 14.4982C97.4991 14.7399 97.9044 15.0954 98.2055 15.5328L102.79 13.4068C101.186 10.9479 98.6292 9.62384 95.4969 9.62384C91.7518 9.62384 87.9726 11.5872 87.9726 15.9754C87.9726 20.2123 91.6951 21.2716 94.6874 22.1265C96.541 22.6523 98.005 23.0685 98.005 24.2563C98.005 24.9145 97.657 26.0192 95.3343 26.0192C93.7454 26.0192 92.5235 25.342 91.8502 24.1844L87.1858 26.3369C88.699 29.1817 91.4378 30.6268 95.3343 30.6268Z" fill="white"></path>
  <path d="M80.9439 1.91795C80.418 1.90743 79.9009 2.05375 79.4585 2.33826C79.0162 2.62276 78.6685 3.03256 78.4599 3.51541C78.2514 3.99826 78.1913 4.53229 78.2874 5.0494C78.3836 5.56652 78.6315 6.04329 78.9996 6.41895C79.3678 6.79461 79.8394 7.05212 80.3545 7.15866C80.8696 7.2652 81.4047 7.21595 81.8917 7.01717C82.3786 6.8184 82.7954 6.47911 83.0887 6.04256C83.3821 5.60602 83.5389 5.09199 83.539 4.56602C83.5391 3.87279 83.2674 3.20715 82.7822 2.71203C82.297 2.21692 81.637 1.93181 80.9439 1.91795Z" fill="white"></path>
  <path d="M109.717 1.91794C109.191 1.90817 108.675 2.05514 108.233 2.34011C107.791 2.62509 107.444 3.03516 107.236 3.51809C107.028 4.00102 106.968 4.53494 107.065 5.05181C107.161 5.56868 107.41 6.04511 107.778 6.42038C108.146 6.79566 108.618 7.05279 109.133 7.15901C109.648 7.26524 110.183 7.21575 110.67 7.01685C111.156 6.81795 111.573 6.47865 111.866 6.04218C112.159 5.6057 112.316 5.09182 112.316 4.566C112.316 3.87213 112.044 3.20593 111.558 2.71071C111.072 2.2155 110.411 1.93082 109.717 1.91794Z" fill="white"></path>
  <path d="M78.3563 10.1875L78.3714 30.6117L83.5389 28.3646V10.1875H78.3563Z" fill="white"></path>
  <path d="M112.308 30.1199L112.297 9.02612L107.126 11.2732L107.129 30.1199H112.308Z" fill="white"></path>
  <path d="M72.9316 1.91797H67.7489V30.0821H72.9316V1.91797Z" fill="white"></path>
  <path d="M48.558 18.4457C48.587 18.2203 48.6287 17.9968 48.6828 17.7761C49.2881 15.4874 51.1077 14.1672 53.6461 14.1672C56.0672 14.1672 57.6825 15.3966 58.4618 17.8291C58.5277 18.0305 58.5783 18.2366 58.6131 18.4457H48.558ZM53.6877 9.60492C47.669 9.60492 43.2997 14.0272 43.2997 20.1215C43.237 22.901 44.2791 25.5919 46.1974 27.6042C48.1608 29.5865 50.9072 30.6306 54.1416 30.6306C57.6711 30.6306 60.4213 29.4011 62.3317 26.9762L58.2272 24.5703C57.1192 25.5367 55.691 26.0559 54.2211 26.0267C51.4368 26.0267 49.5302 24.8578 48.819 22.762C48.7434 22.5538 48.679 22.3416 48.6261 22.1265H63.4099C63.5186 21.4624 63.573 20.7906 63.5725 20.1177C63.5725 14.1218 59.3167 9.60114 53.6763 9.60114" fill="white"></path>
  <path d="M147.278 30.0821V15.9338L149.343 14.9767C149.912 14.7037 150.529 14.5492 151.159 14.5228C153.338 14.5228 155.109 16.1116 155.109 19.4406V30.0821H160.253L160.216 19.1342C160.216 13.2555 156.69 9.62384 151.137 9.62384C149.94 9.62328 148.757 9.88814 147.675 10.3993L142.095 12.9755V30.0821H147.278Z" fill="white"></path>
</svg>