<?xml version="1.0" encoding="UTF-8"?><svg id="Layer_1" xmlns="http://www.w3.org/2000/svg" viewBox="0 0 1076.66 278.22"><defs><style>.cls-1{fill:#13100d;}.cls-1,.cls-2{stroke-width:0px;}.cls-2{fill:#fff;}</style></defs><path class="cls-2" d="M278.22,139.11c0,76.83-62.28,139.11-139.11,139.11S0,215.94,0,139.11,62.28,0,139.11,0s139.11,62.28,139.11,139.11"/><path class="cls-2" d="M964.22,168.06c0-3.35-1.47-5.23-2.39-6.15-1.37-1.47-3.3-2.54-7.42-3.5-6.4-1.47-12.75-2.34-14.52-3.76-.71-.56-.81-1.22-.81-1.63,0-.36.1-1.17.81-1.73,1.52-1.27,4.62-1.22,4.83-1.22,3.25,0,5.08.81,5.89,2.18.2.36.3.76.46,1.17l12.54-.71c-.25-1.57-.76-4.72-4.17-7.21-1.07-.81-2.23-1.42-3.5-1.83-3-1.02-8.02-1.42-11.17-1.42-9.19,0-14.17,2.49-16.5,6.25-1.02,1.58-1.57,3.35-1.57,5.28,0,.92.1,2.95,1.42,4.98,1.83,2.79,4.62,3.86,7.67,4.72,2.79.76,5.64,1.22,8.43,1.78,2.49.46,4.62.86,5.49,1.22,1.68.71,2.03,1.78,2.03,2.59,0,1.27-.96,2.29-2.03,2.84-1.22.61-2.84.76-4.17.76-3.35,0-5.13-.66-6.35-1.57-1.27-.91-1.52-1.88-1.62-2.49l-12.65.31c.2,1.32.46,4.11,2.89,6.8,2.64,3,7.41,4.98,15.85,4.98,9.8,0,15.18-2.08,18.18-5.84,1.52-1.88,2.39-4.37,2.39-6.81M924.15,151.81v-8.02h-38.34v8.02h12.75v27.83h12.9v-27.83h12.7ZM871.89,155.21c0,.41-.05,1.22-.71,2.03-.81.97-2.08,1.27-4.52,1.27h-9.65v-6.6h10.66c1.37,0,2.79.2,3.66,1.47.51.71.56,1.52.56,1.83M885.4,179.64l-8.94-14.32c1.83-.46,2.49-.71,3.35-1.22,4.52-2.49,4.88-7.26,4.88-8.94,0-3.25-1.17-5.38-1.83-6.45-2.89-4.57-7.52-4.93-12.34-4.93h-26.41v35.85h12.9v-13.05h6.8l7.42,13.05h14.17ZM822.78,165.87h-8.33l4.11-12.14,4.21,12.14ZM841.37,179.64l-15.54-35.85h-14.62l-15.49,35.85h14.12l1.93-5.84h13.71l1.93,5.84h13.97ZM762.95,161.81c0,.96-.05,2.89-1.17,5.18-.86,1.83-2.44,3.81-6.86,4.37-.76.1-1.52.15-2.23.15h-6.55v-19.2h6.15c.86,0,4.67-.1,7.36,1.93,3.15,2.44,3.3,6.45,3.3,7.57M775.5,162.12c0-1.93-.1-6.5-3.15-10.87-2.13-3.1-5.79-6.6-14.12-7.31-1.42-.1-2.84-.15-4.27-.15h-20.37v35.85h22.75c3.61,0,4.93-.25,6.75-.71,2.18-.56,3.81-1.42,4.57-1.83,2.13-1.22,3.4-2.49,4.01-3.25,3.66-4.27,3.81-10.11,3.81-11.73M727.56,179.64v-35.85h-12.64v18.89l-17.12-18.89h-10.61v35.85h12.7v-19.2l17.01,19.2h10.67ZM665.7,165.87h-8.33l4.11-12.14,4.21,12.14ZM684.29,179.64l-15.54-35.85h-14.63l-15.49,35.85h14.12l1.93-5.84h13.71l1.93,5.84h13.96ZM618.52,168.06c0-3.35-1.47-5.23-2.39-6.15-1.37-1.47-3.3-2.54-7.41-3.5-6.4-1.47-12.75-2.34-14.52-3.76-.71-.56-.81-1.22-.81-1.63,0-.36.1-1.17.81-1.73,1.52-1.27,4.62-1.22,4.82-1.22,3.25,0,5.08.81,5.89,2.18.2.36.3.76.46,1.17l12.54-.71c-.25-1.57-.76-4.72-4.16-7.21-1.07-.81-2.23-1.42-3.5-1.83-3-1.02-8.02-1.42-11.17-1.42-9.19,0-14.17,2.49-16.5,6.25-1.02,1.58-1.57,3.35-1.57,5.28,0,.92.1,2.95,1.42,4.98,1.83,2.79,4.62,3.86,7.67,4.72,2.79.76,5.64,1.22,8.43,1.78,2.49.46,4.62.86,5.48,1.22,1.68.71,2.03,1.78,2.03,2.59,0,1.27-.97,2.29-2.03,2.84-1.22.61-2.84.76-4.16.76-3.35,0-5.13-.66-6.35-1.57-1.27-.91-1.52-1.88-1.62-2.49l-12.65.31c.2,1.32.46,4.11,2.89,6.8,2.64,3,7.41,4.98,15.84,4.98,9.8,0,15.19-2.08,18.18-5.84,1.52-1.88,2.39-4.37,2.39-6.81M577.89,179.64v-8.13h-25.44v-5.74h23.11v-8.07h-23.11v-5.89h24.99v-8.02h-37.83v35.85h38.29ZM536.65,168.01l-12.24-1.27c-.46,1.17-.71,1.57-1.12,2.13-1.12,1.47-3.96,3.86-8.73,3.86-1.63,0-5.43-.1-8.23-3.76-.96-1.22-2.34-3.5-2.34-7.31,0-2.84.81-5.84,2.79-7.97,2.84-3,6.91-3.25,8.13-3.25,3-.05,6.2.96,8.13,3.45.51.66.71,1.07,1.07,1.78l11.88-2.08c-.3-.97-1.07-3.35-3.05-5.49-3-3.3-8.53-5.84-18.28-5.84-11.93,0-17.72,4.11-20.87,8.63-3,4.32-3.25,8.94-3.25,10.82,0,10.51,6.86,14.93,10.41,16.61,2.69,1.27,6.55,2.54,13.31,2.54,6.25,0,13.71-1.17,18.33-5.84,2.69-2.74,3.66-5.69,4.06-7.01M486.17,179.64v-35.85h-12.65v18.89l-17.11-18.89h-10.62v35.85h12.7v-19.2l17.01,19.2h10.66ZM441.84,179.64v-8.13h-25.44v-5.74h23.11v-8.07h-23.11v-5.89h24.99v-8.02h-37.83v35.85h38.29ZM397.55,143.78h-12.85v35.85h12.85v-35.85ZM381.71,168.01l-12.24-1.27c-.46,1.17-.71,1.57-1.12,2.13-1.12,1.47-3.96,3.86-8.73,3.86-1.63,0-5.43-.1-8.23-3.76-.97-1.22-2.34-3.5-2.34-7.31,0-2.84.81-5.84,2.79-7.97,2.84-3,6.91-3.25,8.13-3.25,3-.05,6.2.96,8.13,3.45.51.66.71,1.07,1.07,1.78l11.88-2.08c-.3-.97-1.07-3.35-3.05-5.49-3-3.3-8.53-5.84-18.28-5.84-11.93,0-17.72,4.11-20.87,8.63-3,4.32-3.25,8.94-3.25,10.82,0,10.51,6.86,14.93,10.41,16.61,2.69,1.27,6.55,2.54,13.3,2.54,6.25,0,13.71-1.17,18.33-5.84,2.69-2.74,3.66-5.69,4.06-7.01M332.85,168.06c0-3.35-1.47-5.23-2.39-6.15-1.37-1.47-3.3-2.54-7.41-3.5-6.4-1.47-12.75-2.34-14.53-3.76-.71-.56-.81-1.22-.81-1.63,0-.36.1-1.17.81-1.73,1.52-1.27,4.62-1.22,4.83-1.22,3.25,0,5.08.81,5.89,2.18.2.36.3.76.46,1.17l12.54-.71c-.25-1.57-.76-4.72-4.17-7.21-1.07-.81-2.23-1.42-3.5-1.83-3-1.02-8.02-1.42-11.17-1.42-9.19,0-14.17,2.49-16.51,6.25-1.02,1.58-1.57,3.35-1.57,5.28,0,.92.1,2.95,1.42,4.98,1.83,2.79,4.62,3.86,7.67,4.72,2.79.76,5.64,1.22,8.43,1.78,2.49.46,4.62.86,5.49,1.22,1.68.71,2.03,1.78,2.03,2.59,0,1.27-.96,2.29-2.03,2.84-1.22.61-2.84.76-4.16.76-3.35,0-5.13-.66-6.35-1.57-1.27-.91-1.52-1.88-1.62-2.49l-12.64.31c.2,1.32.46,4.11,2.89,6.8,2.64,3,7.42,4.98,15.85,4.98,9.8,0,15.18-2.08,18.18-5.84,1.52-1.88,2.39-4.37,2.39-6.81"/><path class="cls-2" d="M1064.11,116.67c0,.96-.05,2.9-1.17,5.18-.86,1.83-2.44,3.81-6.86,4.37-.76.1-1.52.15-2.23.15h-6.55v-19.2h6.15c.86,0,4.67-.1,7.36,1.93,3.15,2.44,3.3,6.45,3.3,7.57M1076.66,116.97c0-1.93-.1-6.5-3.15-10.87-2.13-3.1-5.79-6.6-14.12-7.31-1.42-.1-2.84-.15-4.27-.15h-20.36v35.85h22.75c3.61,0,4.93-.25,6.75-.71,2.18-.56,3.81-1.42,4.57-1.83,2.13-1.22,3.4-2.49,4.01-3.25,3.66-4.27,3.81-10.11,3.81-11.73M1030.8,134.49v-8.13h-25.44v-5.74h23.11v-8.07h-23.11v-5.89h24.99v-8.02h-37.83v35.85h38.29ZM986.51,98.64h-12.85v35.85h12.85v-35.85ZM970.06,134.49v-8.73h-18.33v-27.12h-12.9v35.85h31.23ZM923.28,110.27c0,1.68-.91,2.9-2.49,3.3-.71.2-1.42.2-2.89.2h-8.38v-7.01h9.34c1.52,0,3.1.15,3.96,1.68.15.3.46.92.46,1.83M936.13,110.07c0-3-.71-4.83-1.27-5.99-2.03-4.06-5.64-5.08-9.85-5.33-1.22-.1-2.49-.1-3.71-.1h-24.58v35.85h12.8v-12.65h9.7c3.91,0,8.89-.05,12.34-2.39,4.37-2.9,4.57-7.67,4.57-9.39M881.13,110.27c0,1.68-.91,2.9-2.49,3.3-.71.2-1.42.2-2.89.2h-8.38v-7.01h9.34c1.52,0,3.1.15,3.96,1.68.15.3.46.92.46,1.83M893.98,110.07c0-3-.71-4.83-1.27-5.99-2.03-4.06-5.64-5.08-9.85-5.33-1.22-.1-2.49-.1-3.71-.1h-24.58v35.85h12.8v-12.65h9.7c3.91,0,8.89-.05,12.34-2.39,4.37-2.9,4.57-7.67,4.57-9.39M833.14,120.73h-8.33l4.11-12.14,4.21,12.14ZM851.73,134.49l-15.54-35.85h-14.62l-15.49,35.85h14.12l1.93-5.84h13.71l1.93,5.84h13.97ZM787.53,106.71v-8.07h-35.14v35.85h12.85v-12.9h20.47v-8.02h-20.47v-6.86h22.29ZM734.67,116.52c0,4.06-1.62,8.63-5.64,10.41-1.93.86-4.21.86-4.82.86-2.18,0-7.97-.46-10.11-6.86-.66-1.88-.71-3.71-.71-4.37,0-4.37,1.93-8.68,6.15-10.46,1.57-.66,2.94-.81,4.62-.81,1.93,0,2.89.25,3.81.56,1.73.61,2.95,1.52,3.45,2.03,1.32,1.17,3.25,4.06,3.25,8.63M747.87,116.41c0-5.43-2.08-9.14-3.25-10.87-2.49-3.56-6.91-7.31-16.4-8.07-1.62-.15-3.2-.15-4.82-.15-8.02.1-12.39,1.93-15.44,4.01-2.94,1.98-7.77,6.5-7.77,15.54,0,2.28.15,6.96,3.96,11.58,1.78,2.13,3.56,3.3,4.52,3.86,2.9,1.73,7.52,3.4,15.13,3.4,5.08,0,8.23-.61,10.31-1.22,2.13-.61,3.96-1.47,5.84-2.74,7.26-4.93,7.92-12.14,7.92-15.34M680.38,98.64h-14.83l-7.82,14.27-7.82-14.27h-14.98l16.46,25.19v10.67h12.75v-10.67l16.25-25.19ZM635.23,106.66v-8.02h-38.34v8.02h12.75v27.83h12.9v-27.83h12.7ZM593.53,98.64h-12.85v35.85h12.85v-35.85ZM576.32,122.91c0-3.35-1.47-5.23-2.39-6.15-1.37-1.47-3.3-2.54-7.41-3.5-6.4-1.47-12.75-2.34-14.53-3.76-.71-.56-.81-1.22-.81-1.62,0-.36.1-1.17.81-1.73,1.52-1.27,4.62-1.22,4.83-1.22,3.25,0,5.08.81,5.89,2.18.2.36.3.76.46,1.17l12.54-.71c-.25-1.58-.76-4.72-4.17-7.21-1.07-.81-2.23-1.42-3.5-1.83-3-1.02-8.02-1.42-11.17-1.42-9.19,0-14.17,2.49-16.51,6.25-1.02,1.57-1.57,3.35-1.57,5.28,0,.91.1,2.94,1.42,4.98,1.83,2.79,4.62,3.86,7.67,4.72,2.79.76,5.64,1.22,8.43,1.78,2.49.46,4.62.86,5.49,1.22,1.68.71,2.03,1.78,2.03,2.59,0,1.27-.96,2.28-2.03,2.84-1.22.61-2.84.76-4.16.76-3.35,0-5.13-.66-6.35-1.58-1.27-.91-1.52-1.88-1.62-2.49l-12.64.3c.2,1.32.46,4.11,2.89,6.81,2.64,3,7.42,4.98,15.85,4.98,9.8,0,15.18-2.08,18.18-5.84,1.52-1.88,2.39-4.37,2.39-6.8M522.99,110.07c0,.41-.05,1.22-.71,2.03-.81.96-2.08,1.27-4.52,1.27h-9.65v-6.6h10.66c1.37,0,2.79.2,3.66,1.47.51.71.56,1.52.56,1.83M536.5,134.49l-8.94-14.32c1.83-.46,2.49-.71,3.35-1.22,4.52-2.49,4.88-7.26,4.88-8.94,0-3.25-1.17-5.38-1.83-6.45-2.89-4.57-7.52-4.93-12.34-4.93h-26.41v35.85h12.9v-13.05h6.81l7.41,13.05h14.17ZM491.4,134.49v-8.13h-25.44v-5.74h23.11v-8.07h-23.11v-5.89h24.99v-8.02h-37.83v35.85h38.29ZM450.78,98.64h-13.46l-8.89,21.63-8.74-21.63h-13.46l16.25,35.85h11.94l16.35-35.85ZM403.9,98.64h-12.85v35.85h12.85v-35.85ZM385.06,134.49v-35.85h-12.64v18.89l-17.12-18.89h-10.61v35.85h12.7v-19.2l17.01,19.2h10.67ZM338.59,117.43v-18.79h-12.8v20.16c0,1.73-.05,3.35-.81,4.98-.15.36-.61,1.32-1.52,2.13-2.13,1.83-5.33,1.88-6.04,1.88-.86,0-3.96,0-6.2-2.03-2.08-1.88-2.29-4.17-2.29-6.75v-20.37h-12.8v23.01c0,1.17-.1,4.62,1.88,7.62,3.35,5.08,10.72,5.94,11.94,6.09,3.15.4,6.6.4,7.47.4,9.09,0,14.27-1.78,17.37-4.67,3.96-3.71,3.81-8.79,3.81-13.66"/><circle class="cls-1" cx="139.07" cy="139.11" r="126.61"/><path class="cls-2" d="M87.87,98.63l-46.86.02v81.44h25.09v-24.64h14.83c16.06,0,28.06-6.83,31.14-21.25l-24.2-35.58Z"/><polygon class="cls-2" points="150.61 136.98 176.73 98.65 149.28 98.65 91.91 180.09 121.19 180.09 135.56 155.8 149.47 180.09 179.7 180.09 150.61 136.98"/><polygon class="cls-2" points="124.5 98.65 95.06 98.65 118.98 132.26 132.51 113.05 124.5 98.65"/><polygon class="cls-2" points="239.79 159.22 203.74 159.22 203.74 98.65 178.65 98.65 178.65 166.02 188.24 180.09 239.79 180.09 239.79 159.22"/><path class="cls-1" d="M72.33,136.89c-.85,0-1.71-.34-2.37-1.01l-7.39-7.49c-2.4-2.44-2.68-6.43-.64-9.09,1.1-1.43,2.73-2.32,4.46-2.43,1.74-.11,3.43.55,4.68,1.82l1.28,1.29,1.21-1.22c1.22-1.23,2.8-1.87,4.49-1.81,1.68.06,3.24.81,4.38,2.13,2.3,2.65,2.17,6.83-.29,9.31l-7.45,7.5c-.66.67-1.51,1-2.36,1ZM72.76,132.92h0s0,0,0,0ZM66.77,120.99s-.09,0-.13,0c-.61.04-1.17.35-1.58.88-.78,1.01-.64,2.61.31,3.57l6.96,7.05,7.02-7.06c.95-.95,1-2.56.11-3.58-.41-.47-.95-.74-1.54-.76-.57-.02-1.14.21-1.57.64l-4.01,4.03-4.07-4.12c-.42-.42-.95-.65-1.5-.65Z"/></svg>